<svg width="1024" height="753" viewBox="0 0 1024 753" fill="none" xmlns="http://www.w3.org/2000/svg">
<g clip-path="url(#clip0_122_130)">
<rect width="1024" height="753" fill="#121214"/>
<g opacity="0.2" filter="url(#filter0_f_122_130)">
<ellipse cx="551.5" cy="140" rx="670.5" ry="350" fill="#B3A659"/>
</g>
<path d="M72.0349 376C73.5302 376 74.6622 376.63 75.4308 377.891C76.2134 379.138 76.6047 380.953 76.6047 383.336C76.6047 385.719 76.2134 387.541 75.4308 388.802C74.6622 390.063 73.5302 390.693 72.0349 390.693C70.5536 390.693 69.4216 390.063 68.639 388.802C67.8564 387.541 67.4651 385.719 67.4651 383.336C67.4651 380.967 67.8564 379.152 68.639 377.891C69.4216 376.63 70.5536 376 72.0349 376ZM68.9534 383.336C68.9534 385.026 69.1072 386.35 69.4146 387.306L74.0683 378.099C73.5791 377.448 72.9013 377.122 72.0349 377.122C71.0706 377.122 70.316 377.635 69.771 378.66C69.2259 379.672 68.9534 381.23 68.9534 383.336ZM72.0349 389.55C73.0131 389.55 73.7748 389.044 74.3198 388.033C74.8648 387.008 75.1373 385.442 75.1373 383.336C75.1373 381.549 74.9627 380.163 74.6133 379.18L69.9596 388.469C70.4627 389.19 71.1545 389.55 72.0349 389.55Z" fill="url(#paint0_linear_122_130)" fill-opacity="0.6"/>
<path d="M73.2926 413.135H76.3741V414.236H68.3874V413.135H71.9511V401.455L68.5551 403.471L67.9682 402.536L72.1607 399.959H73.2926V413.135Z" fill="url(#paint1_linear_122_130)" fill-opacity="0.6"/>
<path d="M72.0349 423.502C73.5302 423.502 74.6622 424.133 75.4308 425.393C76.2134 426.64 76.6047 428.455 76.6047 430.838C76.6047 433.221 76.2134 435.043 75.4308 436.304C74.6622 437.565 73.5302 438.195 72.0349 438.195C70.5536 438.195 69.4216 437.565 68.639 436.304C67.8564 435.043 67.4651 433.221 67.4651 430.838C67.4651 428.469 67.8564 426.654 68.639 425.393C69.4216 424.133 70.5536 423.502 72.0349 423.502ZM68.9534 430.838C68.9534 432.529 69.1072 433.852 69.4146 434.808L74.0683 425.601C73.5791 424.95 72.9013 424.624 72.0349 424.624C71.0706 424.624 70.316 425.137 69.771 426.162C69.2259 427.174 68.9534 428.732 68.9534 430.838ZM72.0349 437.052C73.0131 437.052 73.7748 436.546 74.3198 435.535C74.8648 434.51 75.1373 432.944 75.1373 430.838C75.1373 429.051 74.9627 427.665 74.6133 426.682L69.9596 435.971C70.4627 436.692 71.1545 437.052 72.0349 437.052Z" fill="url(#paint2_linear_122_130)" fill-opacity="0.6"/>
<path d="M73.2926 460.637H76.3741V461.738H68.3874V460.637H71.9511V448.957L68.5551 450.973L67.9682 450.038L72.1607 447.461H73.2926V460.637Z" fill="url(#paint3_linear_122_130)" fill-opacity="0.6"/>
<path d="M73.2926 484.388H76.3741V485.489H68.3874V484.388H71.9511V472.708L68.5551 474.724L67.9682 473.789L72.1607 471.212H73.2926V484.388Z" fill="url(#paint4_linear_122_130)" fill-opacity="0.6"/>
<path d="M72.0349 494.755C73.5302 494.755 74.6622 495.386 75.4308 496.646C76.2134 497.893 76.6047 499.708 76.6047 502.091C76.6047 504.474 76.2134 506.296 75.4308 507.557C74.6622 508.818 73.5302 509.448 72.0349 509.448C70.5536 509.448 69.4216 508.818 68.639 507.557C67.8564 506.296 67.4651 504.474 67.4651 502.091C67.4651 499.722 67.8564 497.907 68.639 496.646C69.4216 495.386 70.5536 494.755 72.0349 494.755ZM68.9534 502.091C68.9534 503.782 69.1072 505.105 69.4146 506.061L74.0683 496.854C73.5791 496.203 72.9013 495.878 72.0349 495.878C71.0706 495.878 70.316 496.39 69.771 497.415C69.2259 498.427 68.9534 499.985 68.9534 502.091ZM72.0349 508.305C73.0131 508.305 73.7748 507.8 74.3198 506.788C74.8648 505.763 75.1373 504.197 75.1373 502.091C75.1373 500.304 74.9627 498.919 74.6133 497.935L69.9596 507.225C70.4627 507.945 71.1545 508.305 72.0349 508.305Z" fill="url(#paint5_linear_122_130)" fill-opacity="0.6"/>
<path d="M73.2926 531.89H76.3741V532.992H68.3874V531.89H71.9511V520.21L68.5551 522.226L67.9682 521.291L72.1607 518.714H73.2926V531.89Z" fill="url(#paint6_linear_122_130)" fill-opacity="0.6"/>
<path d="M72.0349 542.257C73.5302 542.257 74.6622 542.888 75.4308 544.149C76.2134 545.396 76.6047 547.211 76.6047 549.594C76.6047 551.977 76.2134 553.798 75.4308 555.059C74.6622 556.32 73.5302 556.95 72.0349 556.95C70.5536 556.95 69.4216 556.32 68.639 555.059C67.8564 553.798 67.4651 551.977 67.4651 549.594C67.4651 547.224 67.8564 545.409 68.639 544.149C69.4216 542.888 70.5536 542.257 72.0349 542.257ZM68.9534 549.594C68.9534 551.284 69.1072 552.607 69.4146 553.563L74.0683 544.356C73.5791 543.705 72.9013 543.38 72.0349 543.38C71.0706 543.38 70.316 543.892 69.771 544.918C69.2259 545.929 68.9534 547.488 68.9534 549.594ZM72.0349 555.807C73.0131 555.807 73.7748 555.302 74.3198 554.29C74.8648 553.265 75.1373 551.699 75.1373 549.594C75.1373 547.806 74.9627 546.421 74.6133 545.437L69.9596 554.727C70.4627 555.447 71.1545 555.807 72.0349 555.807Z" fill="url(#paint7_linear_122_130)" fill-opacity="0.6"/>
<path d="M72.0349 566.008C73.5302 566.008 74.6622 566.639 75.4308 567.9C76.2134 569.147 76.6047 570.962 76.6047 573.345C76.6047 575.728 76.2134 577.549 75.4308 578.81C74.6622 580.071 73.5302 580.701 72.0349 580.701C70.5536 580.701 69.4216 580.071 68.639 578.81C67.8564 577.549 67.4651 575.728 67.4651 573.345C67.4651 570.975 67.8564 569.16 68.639 567.9C69.4216 566.639 70.5536 566.008 72.0349 566.008ZM68.9534 573.345C68.9534 575.035 69.1072 576.358 69.4146 577.314L74.0683 568.107C73.5791 567.456 72.9013 567.131 72.0349 567.131C71.0706 567.131 70.316 567.643 69.771 568.669C69.2259 569.68 68.9534 571.239 68.9534 573.345ZM72.0349 579.558C73.0131 579.558 73.7748 579.053 74.3198 578.041C74.8648 577.016 75.1373 575.451 75.1373 573.345C75.1373 571.557 74.9627 570.172 74.6133 569.188L69.9596 578.478C70.4627 579.198 71.1545 579.558 72.0349 579.558Z" fill="url(#paint8_linear_122_130)" fill-opacity="0.6"/>
<path d="M73.2926 603.143H76.3741V604.245H68.3874V603.143H71.9511V591.464L68.5551 593.48L67.9682 592.544L72.1607 589.967H73.2926V603.143Z" fill="url(#paint9_linear_122_130)" fill-opacity="0.6"/>
<path d="M72.0349 613.511C73.5302 613.511 74.6622 614.141 75.4308 615.402C76.2134 616.649 76.6047 618.464 76.6047 620.847C76.6047 623.23 76.2134 625.052 75.4308 626.312C74.6622 627.573 73.5302 628.204 72.0349 628.204C70.5536 628.204 69.4216 627.573 68.639 626.312C67.8564 625.052 67.4651 623.23 67.4651 620.847C67.4651 618.478 67.8564 616.663 68.639 615.402C69.4216 614.141 70.5536 613.511 72.0349 613.511ZM68.9534 620.847C68.9534 622.537 69.1072 623.86 69.4146 624.816L74.0683 615.61C73.5791 614.958 72.9013 614.633 72.0349 614.633C71.0706 614.633 70.316 615.145 69.771 616.171C69.2259 617.182 68.9534 618.741 68.9534 620.847ZM72.0349 627.061C73.0131 627.061 73.7748 626.555 74.3198 625.543C74.8648 624.518 75.1373 622.953 75.1373 620.847C75.1373 619.059 74.9627 617.674 74.6133 616.69L69.9596 625.98C70.4627 626.7 71.1545 627.061 72.0349 627.061Z" fill="url(#paint10_linear_122_130)" fill-opacity="0.6"/>
<path d="M73.2926 650.645H76.3741V651.747H68.3874V650.645H71.9511V638.966L68.5551 640.982L67.9682 640.046L72.1607 637.469H73.2926V650.645Z" fill="url(#paint11_linear_122_130)" fill-opacity="0.6"/>
<path d="M73.2926 674.396H76.3741V675.498H68.3874V674.396H71.9511V662.717L68.5551 664.733L67.9682 663.798L72.1607 661.221H73.2926V674.396Z" fill="url(#paint12_linear_122_130)" fill-opacity="0.6"/>
<path d="M110.965 423.502C112.46 423.502 113.592 424.133 114.361 425.393C115.144 426.64 115.535 428.455 115.535 430.838C115.535 433.221 115.144 435.043 114.361 436.304C113.592 437.565 112.46 438.195 110.965 438.195C109.484 438.195 108.352 437.565 107.569 436.304C106.787 435.043 106.395 433.221 106.395 430.838C106.395 428.469 106.787 426.654 107.569 425.393C108.352 424.133 109.484 423.502 110.965 423.502ZM107.884 430.838C107.884 432.529 108.037 433.852 108.345 434.808L112.998 425.601C112.509 424.95 111.832 424.624 110.965 424.624C110.001 424.624 109.246 425.137 108.701 426.162C108.156 427.174 107.884 428.732 107.884 430.838ZM110.965 437.052C111.943 437.052 112.705 436.546 113.25 435.535C113.795 434.51 114.068 432.944 114.068 430.838C114.068 429.051 113.893 427.665 113.543 426.682L108.89 435.971C109.393 436.692 110.085 437.052 110.965 437.052Z" fill="url(#paint13_linear_122_130)" fill-opacity="0.6"/>
<path d="M112.223 460.637H115.304V461.738H107.318V460.637H110.881V448.957L107.485 450.973L106.898 450.038L111.091 447.461H112.223V460.637Z" fill="url(#paint14_linear_122_130)" fill-opacity="0.6"/>
<path d="M110.965 471.004C112.46 471.004 113.592 471.635 114.361 472.895C115.144 474.142 115.535 475.957 115.535 478.34C115.535 480.723 115.144 482.545 114.361 483.806C113.592 485.067 112.46 485.697 110.965 485.697C109.484 485.697 108.352 485.067 107.569 483.806C106.787 482.545 106.395 480.723 106.395 478.34C106.395 475.971 106.787 474.156 107.569 472.895C108.352 471.635 109.484 471.004 110.965 471.004ZM107.884 478.34C107.884 480.031 108.037 481.354 108.345 482.31L112.998 473.103C112.509 472.452 111.832 472.126 110.965 472.126C110.001 472.126 109.246 472.639 108.701 473.664C108.156 474.676 107.884 476.234 107.884 478.34ZM110.965 484.554C111.943 484.554 112.705 484.049 113.25 483.037C113.795 482.012 114.068 480.446 114.068 478.34C114.068 476.553 113.893 475.168 113.543 474.184L108.89 483.474C109.393 484.194 110.085 484.554 110.965 484.554Z" fill="url(#paint15_linear_122_130)" fill-opacity="0.6"/>
<path d="M110.965 494.755C112.46 494.755 113.592 495.386 114.361 496.646C115.144 497.893 115.535 499.708 115.535 502.091C115.535 504.474 115.144 506.296 114.361 507.557C113.592 508.818 112.46 509.448 110.965 509.448C109.484 509.448 108.352 508.818 107.569 507.557C106.787 506.296 106.395 504.474 106.395 502.091C106.395 499.722 106.787 497.907 107.569 496.646C108.352 495.386 109.484 494.755 110.965 494.755ZM107.884 502.091C107.884 503.782 108.037 505.105 108.345 506.061L112.998 496.854C112.509 496.203 111.832 495.878 110.965 495.878C110.001 495.878 109.246 496.39 108.701 497.415C108.156 498.427 107.884 499.985 107.884 502.091ZM110.965 508.305C111.943 508.305 112.705 507.8 113.25 506.788C113.795 505.763 114.068 504.197 114.068 502.091C114.068 500.304 113.893 498.919 113.543 497.935L108.89 507.225C109.393 507.945 110.085 508.305 110.965 508.305Z" fill="url(#paint16_linear_122_130)" fill-opacity="0.6"/>
<path d="M112.223 531.89H115.304V532.992H107.318V531.89H110.881V520.21L107.485 522.226L106.898 521.291L111.091 518.714H112.223V531.89Z" fill="url(#paint17_linear_122_130)" fill-opacity="0.6"/>
<path d="M110.965 542.257C112.46 542.257 113.592 542.888 114.361 544.149C115.144 545.396 115.535 547.211 115.535 549.594C115.535 551.977 115.144 553.798 114.361 555.059C113.592 556.32 112.46 556.95 110.965 556.95C109.484 556.95 108.352 556.32 107.569 555.059C106.787 553.798 106.395 551.977 106.395 549.594C106.395 547.224 106.787 545.409 107.569 544.149C108.352 542.888 109.484 542.257 110.965 542.257ZM107.884 549.594C107.884 551.284 108.037 552.607 108.345 553.563L112.998 544.356C112.509 543.705 111.832 543.38 110.965 543.38C110.001 543.38 109.246 543.892 108.701 544.918C108.156 545.929 107.884 547.488 107.884 549.594ZM110.965 555.807C111.943 555.807 112.705 555.302 113.25 554.29C113.795 553.265 114.068 551.699 114.068 549.594C114.068 547.806 113.893 546.421 113.543 545.437L108.89 554.727C109.393 555.447 110.085 555.807 110.965 555.807Z" fill="url(#paint18_linear_122_130)" fill-opacity="0.6"/>
<path d="M112.223 579.392H115.304V580.494H107.318V579.392H110.881V567.713L107.485 569.728L106.898 568.793L111.091 566.216H112.223V579.392Z" fill="url(#paint19_linear_122_130)" fill-opacity="0.6"/>
<path d="M110.965 589.76C112.46 589.76 113.592 590.39 114.361 591.651C115.144 592.898 115.535 594.713 115.535 597.096C115.535 599.479 115.144 601.301 114.361 602.561C113.592 603.822 112.46 604.453 110.965 604.453C109.484 604.453 108.352 603.822 107.569 602.561C106.787 601.301 106.395 599.479 106.395 597.096C106.395 594.726 106.787 592.911 107.569 591.651C108.352 590.39 109.484 589.76 110.965 589.76ZM107.884 597.096C107.884 598.786 108.037 600.109 108.345 601.065L112.998 591.859C112.509 591.207 111.832 590.882 110.965 590.882C110.001 590.882 109.246 591.394 108.701 592.42C108.156 593.431 107.884 594.99 107.884 597.096ZM110.965 603.31C111.943 603.31 112.705 602.804 113.25 601.792C113.795 600.767 114.068 599.202 114.068 597.096C114.068 595.308 113.893 593.923 113.543 592.939L108.89 602.229C109.393 602.949 110.085 603.31 110.965 603.31Z" fill="url(#paint20_linear_122_130)" fill-opacity="0.6"/>
<path d="M110.965 613.511C112.46 613.511 113.592 614.141 114.361 615.402C115.144 616.649 115.535 618.464 115.535 620.847C115.535 623.23 115.144 625.052 114.361 626.312C113.592 627.573 112.46 628.204 110.965 628.204C109.484 628.204 108.352 627.573 107.569 626.312C106.787 625.052 106.395 623.23 106.395 620.847C106.395 618.478 106.787 616.663 107.569 615.402C108.352 614.141 109.484 613.511 110.965 613.511ZM107.884 620.847C107.884 622.537 108.037 623.86 108.345 624.816L112.998 615.61C112.509 614.958 111.832 614.633 110.965 614.633C110.001 614.633 109.246 615.145 108.701 616.171C108.156 617.182 107.884 618.741 107.884 620.847ZM110.965 627.061C111.943 627.061 112.705 626.555 113.25 625.543C113.795 624.518 114.068 622.953 114.068 620.847C114.068 619.059 113.893 617.674 113.543 616.69L108.89 625.98C109.393 626.7 110.085 627.061 110.965 627.061Z" fill="url(#paint21_linear_122_130)" fill-opacity="0.6"/>
<path d="M112.223 650.645H115.304V651.747H107.318V650.645H110.881V638.966L107.485 640.982L106.898 640.046L111.091 637.469H112.223V650.645Z" fill="url(#paint22_linear_122_130)" fill-opacity="0.6"/>
<path d="M110.965 661.013C112.46 661.013 113.592 661.643 114.361 662.904C115.144 664.151 115.535 665.966 115.535 668.349C115.535 670.732 115.144 672.554 114.361 673.815C113.592 675.075 112.46 675.706 110.965 675.706C109.484 675.706 108.352 675.075 107.569 673.815C106.787 672.554 106.395 670.732 106.395 668.349C106.395 665.98 106.787 664.165 107.569 662.904C108.352 661.643 109.484 661.013 110.965 661.013ZM107.884 668.349C107.884 670.039 108.037 671.362 108.345 672.318L112.998 663.112C112.509 662.461 111.832 662.135 110.965 662.135C110.001 662.135 109.246 662.648 108.701 663.673C108.156 664.684 107.884 666.243 107.884 668.349ZM110.965 674.563C111.943 674.563 112.705 674.057 113.25 673.046C113.795 672.02 114.068 670.455 114.068 668.349C114.068 666.562 113.893 665.176 113.543 664.192L108.89 673.482C109.393 674.202 110.085 674.563 110.965 674.563Z" fill="url(#paint23_linear_122_130)" fill-opacity="0.6"/>
<path d="M112.223 698.148H115.304V699.249H107.318V698.148H110.881V686.468L107.485 688.484L106.898 687.549L111.091 684.972H112.223V698.148Z" fill="url(#paint24_linear_122_130)" fill-opacity="0.6"/>
<path d="M112.223 721.899H115.304V723H107.318V721.899H110.881V710.219L107.485 712.235L106.898 711.3L111.091 708.723H112.223V721.899Z" fill="url(#paint25_linear_122_130)" fill-opacity="0.6"/>
<path d="M52.5698 447.253C54.0651 447.253 55.1971 447.884 55.9657 449.144C56.7483 450.391 57.1396 452.206 57.1396 454.589C57.1396 456.972 56.7483 458.794 55.9657 460.055C55.1971 461.316 54.0651 461.946 52.5698 461.946C51.0885 461.946 49.9565 461.316 49.1739 460.055C48.3913 458.794 48 456.972 48 454.589C48 452.22 48.3913 450.405 49.1739 449.144C49.9565 447.884 51.0885 447.253 52.5698 447.253ZM49.4883 454.589C49.4883 456.28 49.6421 457.603 49.9495 458.559L54.6032 449.352C54.114 448.701 53.4363 448.375 52.5698 448.375C51.6055 448.375 50.8509 448.888 50.3059 449.913C49.7608 450.925 49.4883 452.483 49.4883 454.589ZM52.5698 460.803C53.5481 460.803 54.3097 460.297 54.8547 459.286C55.3997 458.261 55.6722 456.695 55.6722 454.589C55.6722 452.802 55.4976 451.417 55.1482 450.433L50.4945 459.722C50.9976 460.443 51.6894 460.803 52.5698 460.803Z" fill="url(#paint26_linear_122_130)" fill-opacity="0.6"/>
<path d="M52.5698 471.004C54.0651 471.004 55.1971 471.635 55.9657 472.895C56.7483 474.142 57.1396 475.957 57.1396 478.34C57.1396 480.723 56.7483 482.545 55.9657 483.806C55.1971 485.067 54.0651 485.697 52.5698 485.697C51.0885 485.697 49.9565 485.067 49.1739 483.806C48.3913 482.545 48 480.723 48 478.34C48 475.971 48.3913 474.156 49.1739 472.895C49.9565 471.635 51.0885 471.004 52.5698 471.004ZM49.4883 478.34C49.4883 480.031 49.6421 481.354 49.9495 482.31L54.6032 473.103C54.114 472.452 53.4363 472.126 52.5698 472.126C51.6055 472.126 50.8509 472.639 50.3059 473.664C49.7608 474.676 49.4883 476.234 49.4883 478.34ZM52.5698 484.554C53.5481 484.554 54.3097 484.049 54.8547 483.037C55.3997 482.012 55.6722 480.446 55.6722 478.34C55.6722 476.553 55.4976 475.168 55.1482 474.184L50.4945 483.474C50.9976 484.194 51.6894 484.554 52.5698 484.554Z" fill="url(#paint27_linear_122_130)" fill-opacity="0.6"/>
<path d="M53.8276 508.139H56.909V509.24H48.9223V508.139H52.486V496.459L49.09 498.475L48.5031 497.54L52.6956 494.963H53.8276V508.139Z" fill="url(#paint28_linear_122_130)" fill-opacity="0.6"/>
<path d="M52.5698 518.506C54.0651 518.506 55.1971 519.137 55.9657 520.398C56.7483 521.644 57.1396 523.459 57.1396 525.842C57.1396 528.225 56.7483 530.047 55.9657 531.308C55.1971 532.569 54.0651 533.199 52.5698 533.199C51.0885 533.199 49.9565 532.569 49.1739 531.308C48.3913 530.047 48 528.225 48 525.842C48 523.473 48.3913 521.658 49.1739 520.398C49.9565 519.137 51.0885 518.506 52.5698 518.506ZM49.4883 525.842C49.4883 527.533 49.6421 528.856 49.9495 529.812L54.6032 520.605C54.114 519.954 53.4363 519.629 52.5698 519.629C51.6055 519.629 50.8509 520.141 50.3059 521.166C49.7608 522.178 49.4883 523.737 49.4883 525.842ZM52.5698 532.056C53.5481 532.056 54.3097 531.551 54.8547 530.539C55.3997 529.514 55.6722 527.948 55.6722 525.842C55.6722 524.055 55.4976 522.67 55.1482 521.686L50.4945 530.976C50.9976 531.696 51.6894 532.056 52.5698 532.056Z" fill="url(#paint29_linear_122_130)" fill-opacity="0.6"/>
<path d="M53.8276 555.641H56.909V556.743H48.9223V555.641H52.486V543.962L49.09 545.977L48.5031 545.042L52.6956 542.465H53.8276V555.641Z" fill="url(#paint30_linear_122_130)" fill-opacity="0.6"/>
<path d="M53.8276 579.392H56.909V580.494H48.9223V579.392H52.486V567.713L49.09 569.728L48.5031 568.793L52.6956 566.216H53.8276V579.392Z" fill="url(#paint31_linear_122_130)" fill-opacity="0.6"/>
<path d="M92.7577 413.135H95.8392V414.236H87.8525V413.135H91.4162V401.455L88.0202 403.471L87.4333 402.536L91.6258 399.959H92.7577V413.135Z" fill="url(#paint32_linear_122_130)" fill-opacity="0.6"/>
<path d="M91.5 423.502C92.9953 423.502 94.1273 424.133 94.8959 425.393C95.6785 426.64 96.0698 428.455 96.0698 430.838C96.0698 433.221 95.6785 435.043 94.8959 436.304C94.1273 437.565 92.9953 438.195 91.5 438.195C90.0187 438.195 88.8867 437.565 88.1041 436.304C87.3215 435.043 86.9302 433.221 86.9302 430.838C86.9302 428.469 87.3215 426.654 88.1041 425.393C88.8867 424.133 90.0187 423.502 91.5 423.502ZM88.4185 430.838C88.4185 432.529 88.5723 433.852 88.8797 434.808L93.5334 425.601C93.0442 424.95 92.3664 424.624 91.5 424.624C90.5357 424.624 89.7811 425.137 89.2361 426.162C88.691 427.174 88.4185 428.732 88.4185 430.838ZM91.5 437.052C92.4782 437.052 93.2399 436.546 93.7849 435.535C94.3299 434.51 94.6024 432.944 94.6024 430.838C94.6024 429.051 94.4277 427.665 94.0784 426.682L89.4247 435.971C89.9278 436.692 90.6196 437.052 91.5 437.052Z" fill="url(#paint33_linear_122_130)" fill-opacity="0.6"/>
<path d="M92.7577 460.637H95.8392V461.738H87.8525V460.637H91.4162V448.957L88.0202 450.973L87.4333 450.038L91.6258 447.461H92.7577V460.637Z" fill="url(#paint34_linear_122_130)" fill-opacity="0.6"/>
<path d="M92.7577 484.388H95.8392V485.489H87.8525V484.388H91.4162V472.708L88.0202 474.724L87.4333 473.789L91.6258 471.212H92.7577V484.388Z" fill="url(#paint35_linear_122_130)" fill-opacity="0.6"/>
<path d="M91.5 494.755C92.9953 494.755 94.1273 495.386 94.8959 496.646C95.6785 497.893 96.0698 499.708 96.0698 502.091C96.0698 504.474 95.6785 506.296 94.8959 507.557C94.1273 508.818 92.9953 509.448 91.5 509.448C90.0187 509.448 88.8867 508.818 88.1041 507.557C87.3215 506.296 86.9302 504.474 86.9302 502.091C86.9302 499.722 87.3215 497.907 88.1041 496.646C88.8867 495.386 90.0187 494.755 91.5 494.755ZM88.4185 502.091C88.4185 503.782 88.5723 505.105 88.8797 506.061L93.5334 496.854C93.0442 496.203 92.3664 495.878 91.5 495.878C90.5357 495.878 89.7811 496.39 89.2361 497.415C88.691 498.427 88.4185 499.985 88.4185 502.091ZM91.5 508.305C92.4782 508.305 93.2399 507.8 93.7849 506.788C94.3299 505.763 94.6024 504.197 94.6024 502.091C94.6024 500.304 94.4277 498.919 94.0784 497.935L89.4247 507.225C89.9278 507.945 90.6196 508.305 91.5 508.305Z" fill="url(#paint36_linear_122_130)" fill-opacity="0.6"/>
<path d="M92.7577 531.89H95.8392V532.992H87.8525V531.89H91.4162V520.21L88.0202 522.226L87.4333 521.291L91.6258 518.714H92.7577V531.89Z" fill="url(#paint37_linear_122_130)" fill-opacity="0.6"/>
<path d="M92.7577 555.641H95.8392V556.743H87.8525V555.641H91.4162V543.962L88.0202 545.977L87.4333 545.042L91.6258 542.465H92.7577V555.641Z" fill="url(#paint38_linear_122_130)" fill-opacity="0.6"/>
<path d="M91.5 566.008C92.9953 566.008 94.1273 566.639 94.8959 567.9C95.6785 569.147 96.0698 570.962 96.0698 573.345C96.0698 575.728 95.6785 577.549 94.8959 578.81C94.1273 580.071 92.9953 580.701 91.5 580.701C90.0187 580.701 88.8867 580.071 88.1041 578.81C87.3215 577.549 86.9302 575.728 86.9302 573.345C86.9302 570.975 87.3215 569.16 88.1041 567.9C88.8867 566.639 90.0187 566.008 91.5 566.008ZM88.4185 573.345C88.4185 575.035 88.5723 576.358 88.8797 577.314L93.5334 568.107C93.0442 567.456 92.3664 567.131 91.5 567.131C90.5357 567.131 89.7811 567.643 89.2361 568.669C88.691 569.68 88.4185 571.239 88.4185 573.345ZM91.5 579.558C92.4782 579.558 93.2399 579.053 93.7849 578.041C94.3299 577.016 94.6024 575.451 94.6024 573.345C94.6024 571.557 94.4277 570.172 94.0784 569.188L89.4247 578.478C89.9278 579.198 90.6196 579.558 91.5 579.558Z" fill="url(#paint39_linear_122_130)" fill-opacity="0.6"/>
<path d="M92.7577 603.143H95.8392V604.245H87.8525V603.143H91.4162V591.464L88.0202 593.48L87.4333 592.544L91.6258 589.967H92.7577V603.143Z" fill="url(#paint40_linear_122_130)" fill-opacity="0.6"/>
<path d="M91.5 613.511C92.9953 613.511 94.1273 614.141 94.8959 615.402C95.6785 616.649 96.0698 618.464 96.0698 620.847C96.0698 623.23 95.6785 625.052 94.8959 626.312C94.1273 627.573 92.9953 628.204 91.5 628.204C90.0187 628.204 88.8867 627.573 88.1041 626.312C87.3215 625.052 86.9302 623.23 86.9302 620.847C86.9302 618.478 87.3215 616.663 88.1041 615.402C88.8867 614.141 90.0187 613.511 91.5 613.511ZM88.4185 620.847C88.4185 622.537 88.5723 623.86 88.8797 624.816L93.5334 615.61C93.0442 614.958 92.3664 614.633 91.5 614.633C90.5357 614.633 89.7811 615.145 89.2361 616.171C88.691 617.182 88.4185 618.741 88.4185 620.847ZM91.5 627.061C92.4782 627.061 93.2399 626.555 93.7849 625.543C94.3299 624.518 94.6024 622.953 94.6024 620.847C94.6024 619.059 94.4277 617.674 94.0784 616.69L89.4247 625.98C89.9278 626.7 90.6196 627.061 91.5 627.061Z" fill="url(#paint41_linear_122_130)" fill-opacity="0.6"/>
<path d="M130.43 399.751C131.926 399.751 133.057 400.381 133.826 401.642C134.609 402.889 135 404.704 135 407.087C135 409.47 134.609 411.292 133.826 412.553C133.057 413.814 131.926 414.444 130.43 414.444C128.949 414.444 127.817 413.814 127.034 412.553C126.252 411.292 125.86 409.47 125.86 407.087C125.86 404.718 126.252 402.903 127.034 401.642C127.817 400.381 128.949 399.751 130.43 399.751ZM127.349 407.087C127.349 408.777 127.502 410.101 127.81 411.057L132.464 401.85C131.974 401.199 131.297 400.873 130.43 400.873C129.466 400.873 128.711 401.386 128.166 402.411C127.621 403.423 127.349 404.981 127.349 407.087ZM130.43 413.301C131.408 413.301 132.17 412.795 132.715 411.784C133.26 410.759 133.533 409.193 133.533 407.087C133.533 405.3 133.358 403.914 133.009 402.931L128.355 412.22C128.858 412.941 129.55 413.301 130.43 413.301Z" fill="url(#paint42_linear_122_130)" fill-opacity="0.6"/>
<path d="M131.688 436.886H134.769V437.987H126.783V436.886H130.346V425.206L126.95 427.222L126.363 426.287L130.556 423.71H131.688V436.886Z" fill="url(#paint43_linear_122_130)" fill-opacity="0.6"/>
<path d="M131.688 460.637H134.769V461.738H126.783V460.637H130.346V448.957L126.95 450.973L126.363 450.038L130.556 447.461H131.688V460.637Z" fill="url(#paint44_linear_122_130)" fill-opacity="0.6"/>
<path d="M130.43 471.004C131.926 471.004 133.057 471.635 133.826 472.895C134.609 474.142 135 475.957 135 478.34C135 480.723 134.609 482.545 133.826 483.806C133.057 485.067 131.926 485.697 130.43 485.697C128.949 485.697 127.817 485.067 127.034 483.806C126.252 482.545 125.86 480.723 125.86 478.34C125.86 475.971 126.252 474.156 127.034 472.895C127.817 471.635 128.949 471.004 130.43 471.004ZM127.349 478.34C127.349 480.031 127.502 481.354 127.81 482.31L132.464 473.103C131.974 472.452 131.297 472.126 130.43 472.126C129.466 472.126 128.711 472.639 128.166 473.664C127.621 474.676 127.349 476.234 127.349 478.34ZM130.43 484.554C131.408 484.554 132.17 484.049 132.715 483.037C133.26 482.012 133.533 480.446 133.533 478.34C133.533 476.553 133.358 475.168 133.009 474.184L128.355 483.474C128.858 484.194 129.55 484.554 130.43 484.554Z" fill="url(#paint45_linear_122_130)" fill-opacity="0.6"/>
<path d="M130.43 494.755C131.926 494.755 133.057 495.386 133.826 496.646C134.609 497.893 135 499.708 135 502.091C135 504.474 134.609 506.296 133.826 507.557C133.057 508.818 131.926 509.448 130.43 509.448C128.949 509.448 127.817 508.818 127.034 507.557C126.252 506.296 125.86 504.474 125.86 502.091C125.86 499.722 126.252 497.907 127.034 496.646C127.817 495.386 128.949 494.755 130.43 494.755ZM127.349 502.091C127.349 503.782 127.502 505.105 127.81 506.061L132.464 496.854C131.974 496.203 131.297 495.878 130.43 495.878C129.466 495.878 128.711 496.39 128.166 497.415C127.621 498.427 127.349 499.985 127.349 502.091ZM130.43 508.305C131.408 508.305 132.17 507.8 132.715 506.788C133.26 505.763 133.533 504.197 133.533 502.091C133.533 500.304 133.358 498.919 133.009 497.935L128.355 507.225C128.858 507.945 129.55 508.305 130.43 508.305Z" fill="url(#paint46_linear_122_130)" fill-opacity="0.6"/>
<g opacity="0.6">
<path d="M958.93 76C960.356 76 961.436 76.605 962.17 77.8149C962.916 79.0115 963.29 80.7532 963.29 83.0401C963.29 85.327 962.916 87.0754 962.17 88.2853C961.436 89.4952 960.356 90.1002 958.93 90.1002C957.517 90.1002 956.437 89.4952 955.69 88.2853C954.943 87.0754 954.57 85.327 954.57 83.0401C954.57 80.7665 954.943 79.0248 955.69 77.8149C956.437 76.605 957.517 76 958.93 76ZM955.99 83.0401C955.99 84.6622 956.137 85.932 956.43 86.8494L960.87 78.0143C960.403 77.3894 959.756 77.077 958.93 77.077C958.01 77.077 957.29 77.5689 956.77 78.5528C956.25 79.5234 955.99 81.0192 955.99 83.0401ZM958.93 89.0033C959.863 89.0033 960.59 88.518 961.11 87.5474C961.63 86.5635 961.89 85.0611 961.89 83.0401C961.89 81.325 961.723 79.9954 961.39 79.0514L956.95 87.9662C957.43 88.6576 958.09 89.0033 958.93 89.0033Z" fill="url(#paint47_linear_122_130)"/>
<path d="M960.13 111.637H963.07V112.694H955.45V111.637H958.85V100.428L955.61 102.363L955.05 101.465L959.05 98.9922H960.13V111.637Z" fill="url(#paint48_linear_122_130)"/>
<path d="M958.93 121.586C960.356 121.586 961.436 122.191 962.17 123.4C962.916 124.597 963.29 126.339 963.29 128.626C963.29 130.913 962.916 132.661 962.17 133.871C961.436 135.081 960.356 135.686 958.93 135.686C957.517 135.686 956.437 135.081 955.69 133.871C954.943 132.661 954.57 130.913 954.57 128.626C954.57 126.352 954.943 124.61 955.69 123.4C956.437 122.191 957.517 121.586 958.93 121.586ZM955.99 128.626C955.99 130.248 956.137 131.518 956.43 132.435L960.87 123.6C960.403 122.975 959.756 122.663 958.93 122.663C958.01 122.663 957.29 123.155 956.77 124.138C956.25 125.109 955.99 126.605 955.99 128.626ZM958.93 134.589C959.863 134.589 960.59 134.104 961.11 133.133C961.63 132.149 961.89 130.647 961.89 128.626C961.89 126.911 961.723 125.581 961.39 124.637L956.95 133.552C957.43 134.243 958.09 134.589 958.93 134.589Z" fill="url(#paint49_linear_122_130)"/>
<path d="M960.13 157.222H963.07V158.279H955.45V157.222H958.85V146.014L955.61 147.948L955.05 147.051L959.05 144.578H960.13V157.222Z" fill="url(#paint50_linear_122_130)"/>
<path d="M960.13 180.015H963.07V181.072H955.45V180.015H958.85V168.807L955.61 170.741L955.05 169.844L959.05 167.371H960.13V180.015Z" fill="url(#paint51_linear_122_130)"/>
<path d="M958.93 189.964C960.356 189.964 961.436 190.569 962.17 191.779C962.916 192.976 963.29 194.717 963.29 197.004C963.29 199.291 962.916 201.039 962.17 202.249C961.436 203.459 960.356 204.064 958.93 204.064C957.517 204.064 956.437 203.459 955.69 202.249C954.943 201.039 954.57 199.291 954.57 197.004C954.57 194.731 954.943 192.989 955.69 191.779C956.437 190.569 957.517 189.964 958.93 189.964ZM955.99 197.004C955.99 198.626 956.137 199.896 956.43 200.813L960.87 191.978C960.403 191.353 959.756 191.041 958.93 191.041C958.01 191.041 957.29 191.533 956.77 192.517C956.25 193.487 955.99 194.983 955.99 197.004ZM958.93 202.967C959.863 202.967 960.59 202.482 961.11 201.511C961.63 200.528 961.89 199.025 961.89 197.004C961.89 195.289 961.723 193.959 961.39 193.015L956.95 201.93C957.43 202.622 958.09 202.967 958.93 202.967Z" fill="url(#paint52_linear_122_130)"/>
<path d="M960.13 225.601H963.07V226.658H955.45V225.601H958.85V214.392L955.61 216.327L955.05 215.429L959.05 212.956H960.13V225.601Z" fill="url(#paint53_linear_122_130)"/>
<path d="M958.93 235.55C960.356 235.55 961.436 236.155 962.17 237.365C962.916 238.561 963.29 240.303 963.29 242.59C963.29 244.877 962.916 246.625 962.17 247.835C961.436 249.045 960.356 249.65 958.93 249.65C957.517 249.65 956.437 249.045 955.69 247.835C954.943 246.625 954.57 244.877 954.57 242.59C954.57 240.316 954.943 238.574 955.69 237.365C956.437 236.155 957.517 235.55 958.93 235.55ZM955.99 242.59C955.99 244.212 956.137 245.482 956.43 246.399L960.87 237.564C960.403 236.939 959.756 236.627 958.93 236.627C958.01 236.627 957.29 237.119 956.77 238.102C956.25 239.073 955.99 240.569 955.99 242.59ZM958.93 248.553C959.863 248.553 960.59 248.068 961.11 247.097C961.63 246.113 961.89 244.611 961.89 242.59C961.89 240.875 961.723 239.545 961.39 238.601L956.95 247.516C957.43 248.207 958.09 248.553 958.93 248.553Z" fill="url(#paint54_linear_122_130)"/>
<path d="M958.93 258.342C960.356 258.342 961.436 258.947 962.17 260.157C962.916 261.354 963.29 263.096 963.29 265.383C963.29 267.669 962.916 269.418 962.17 270.628C961.436 271.838 960.356 272.443 958.93 272.443C957.517 272.443 956.437 271.838 955.69 270.628C954.943 269.418 954.57 267.669 954.57 265.383C954.57 263.109 954.943 261.367 955.69 260.157C956.437 258.947 957.517 258.342 958.93 258.342ZM955.99 265.383C955.99 267.005 956.137 268.274 956.43 269.192L960.87 260.357C960.403 259.732 959.756 259.419 958.93 259.419C958.01 259.419 957.29 259.911 956.77 260.895C956.25 261.866 955.99 263.362 955.99 265.383ZM958.93 271.346C959.863 271.346 960.59 270.86 961.11 269.89C961.63 268.906 961.89 267.404 961.89 265.383C961.89 263.667 961.723 262.338 961.39 261.394L956.95 270.309C957.43 271 958.09 271.346 958.93 271.346Z" fill="url(#paint55_linear_122_130)"/>
<path d="M960.13 293.979H963.07V295.036H955.45V293.979H958.85V282.771L955.61 284.705L955.05 283.808L959.05 281.335H960.13V293.979Z" fill="url(#paint56_linear_122_130)"/>
<path d="M958.93 303.928C960.356 303.928 961.436 304.533 962.17 305.743C962.916 306.94 963.29 308.681 963.29 310.968C963.29 313.255 962.916 315.003 962.17 316.213C961.436 317.423 960.356 318.028 958.93 318.028C957.517 318.028 956.437 317.423 955.69 316.213C954.943 315.003 954.57 313.255 954.57 310.968C954.57 308.695 954.943 306.953 955.69 305.743C956.437 304.533 957.517 303.928 958.93 303.928ZM955.99 310.968C955.99 312.59 956.137 313.86 956.43 314.777L960.87 305.942C960.403 305.317 959.756 305.005 958.93 305.005C958.01 305.005 957.29 305.497 956.77 306.481C956.25 307.451 955.99 308.947 955.99 310.968ZM958.93 316.931C959.863 316.931 960.59 316.446 961.11 315.475C961.63 314.492 961.89 312.989 961.89 310.968C961.89 309.253 961.723 307.923 961.39 306.979L956.95 315.894C957.43 316.586 958.09 316.931 958.93 316.931Z" fill="url(#paint57_linear_122_130)"/>
<path d="M960.13 339.565H963.07V340.622H955.45V339.565H958.85V328.356L955.61 330.291L955.05 329.393L959.05 326.92H960.13V339.565Z" fill="url(#paint58_linear_122_130)"/>
<path d="M960.13 362.357H963.07V363.414H955.45V362.357H958.85V351.149L955.61 353.084L955.05 352.186L959.05 349.713H960.13V362.357Z" fill="url(#paint59_linear_122_130)"/>
<path d="M996.07 121.586C997.497 121.586 998.577 122.191 999.31 123.4C1000.06 124.597 1000.43 126.339 1000.43 128.626C1000.43 130.913 1000.06 132.661 999.31 133.871C998.577 135.081 997.497 135.686 996.07 135.686C994.657 135.686 993.577 135.081 992.83 133.871C992.084 132.661 991.71 130.913 991.71 128.626C991.71 126.352 992.084 124.61 992.83 123.4C993.577 122.191 994.657 121.586 996.07 121.586ZM993.13 128.626C993.13 130.248 993.277 131.518 993.57 132.435L998.01 123.6C997.543 122.975 996.897 122.663 996.07 122.663C995.15 122.663 994.43 123.155 993.91 124.138C993.39 125.109 993.13 126.605 993.13 128.626ZM996.07 134.589C997.003 134.589 997.73 134.104 998.25 133.133C998.77 132.149 999.03 130.647 999.03 128.626C999.03 126.911 998.863 125.581 998.53 124.637L994.09 133.552C994.57 134.243 995.23 134.589 996.07 134.589Z" fill="url(#paint60_linear_122_130)"/>
<path d="M997.27 157.222H1000.21V158.279H992.59V157.222H995.99V146.014L992.75 147.948L992.19 147.051L996.19 144.578H997.27V157.222Z" fill="url(#paint61_linear_122_130)"/>
<path d="M996.07 167.171C997.497 167.171 998.577 167.776 999.31 168.986C1000.06 170.183 1000.43 171.924 1000.43 174.211C1000.43 176.498 1000.06 178.247 999.31 179.457C998.577 180.666 997.497 181.271 996.07 181.271C994.657 181.271 993.577 180.666 992.83 179.457C992.084 178.247 991.71 176.498 991.71 174.211C991.71 171.938 992.084 170.196 992.83 168.986C993.577 167.776 994.657 167.171 996.07 167.171ZM993.13 174.211C993.13 175.833 993.277 177.103 993.57 178.021L998.01 169.186C997.543 168.561 996.897 168.248 996.07 168.248C995.15 168.248 994.43 168.74 993.91 169.724C993.39 170.695 993.13 172.19 993.13 174.211ZM996.07 180.174C997.003 180.174 997.73 179.689 998.25 178.719C998.77 177.735 999.03 176.232 999.03 174.211C999.03 172.496 998.863 171.167 998.53 170.223L994.09 179.137C994.57 179.829 995.23 180.174 996.07 180.174Z" fill="url(#paint62_linear_122_130)"/>
<path d="M996.07 189.964C997.497 189.964 998.577 190.569 999.31 191.779C1000.06 192.976 1000.43 194.717 1000.43 197.004C1000.43 199.291 1000.06 201.039 999.31 202.249C998.577 203.459 997.497 204.064 996.07 204.064C994.657 204.064 993.577 203.459 992.83 202.249C992.084 201.039 991.71 199.291 991.71 197.004C991.71 194.731 992.084 192.989 992.83 191.779C993.577 190.569 994.657 189.964 996.07 189.964ZM993.13 197.004C993.13 198.626 993.277 199.896 993.57 200.813L998.01 191.978C997.543 191.353 996.897 191.041 996.07 191.041C995.15 191.041 994.43 191.533 993.91 192.517C993.39 193.487 993.13 194.983 993.13 197.004ZM996.07 202.967C997.003 202.967 997.73 202.482 998.25 201.511C998.77 200.528 999.03 199.025 999.03 197.004C999.03 195.289 998.863 193.959 998.53 193.015L994.09 201.93C994.57 202.622 995.23 202.967 996.07 202.967Z" fill="url(#paint63_linear_122_130)"/>
<path d="M997.27 225.601H1000.21V226.658H992.59V225.601H995.99V214.392L992.75 216.327L992.19 215.429L996.19 212.956H997.27V225.601Z" fill="url(#paint64_linear_122_130)"/>
<path d="M996.07 235.55C997.497 235.55 998.577 236.155 999.31 237.365C1000.06 238.561 1000.43 240.303 1000.43 242.59C1000.43 244.877 1000.06 246.625 999.31 247.835C998.577 249.045 997.497 249.65 996.07 249.65C994.657 249.65 993.577 249.045 992.83 247.835C992.084 246.625 991.71 244.877 991.71 242.59C991.71 240.316 992.084 238.574 992.83 237.365C993.577 236.155 994.657 235.55 996.07 235.55ZM993.13 242.59C993.13 244.212 993.277 245.482 993.57 246.399L998.01 237.564C997.543 236.939 996.897 236.627 996.07 236.627C995.15 236.627 994.43 237.119 993.91 238.102C993.39 239.073 993.13 240.569 993.13 242.59ZM996.07 248.553C997.003 248.553 997.73 248.068 998.25 247.097C998.77 246.113 999.03 244.611 999.03 242.59C999.03 240.875 998.863 239.545 998.53 238.601L994.09 247.516C994.57 248.207 995.23 248.553 996.07 248.553Z" fill="url(#paint65_linear_122_130)"/>
<path d="M997.27 271.186H1000.21V272.243H992.59V271.186H995.99V259.978L992.75 261.912L992.19 261.015L996.19 258.542H997.27V271.186Z" fill="url(#paint66_linear_122_130)"/>
<path d="M996.07 281.135C997.497 281.135 998.577 281.74 999.31 282.95C1000.06 284.147 1000.43 285.888 1000.43 288.175C1000.43 290.462 1000.06 292.211 999.31 293.421C998.577 294.63 997.497 295.235 996.07 295.235C994.657 295.235 993.577 294.63 992.83 293.421C992.084 292.211 991.71 290.462 991.71 288.175C991.71 285.902 992.084 284.16 992.83 282.95C993.577 281.74 994.657 281.135 996.07 281.135ZM993.13 288.175C993.13 289.797 993.277 291.067 993.57 291.985L998.01 283.15C997.543 282.525 996.897 282.212 996.07 282.212C995.15 282.212 994.43 282.704 993.91 283.688C993.39 284.659 993.13 286.154 993.13 288.175ZM996.07 294.139C997.003 294.139 997.73 293.653 998.25 292.683C998.77 291.699 999.03 290.196 999.03 288.175C999.03 286.46 998.863 285.131 998.53 284.187L994.09 293.101C994.57 293.793 995.23 294.139 996.07 294.139Z" fill="url(#paint67_linear_122_130)"/>
<path d="M996.07 303.928C997.497 303.928 998.577 304.533 999.31 305.743C1000.06 306.94 1000.43 308.681 1000.43 310.968C1000.43 313.255 1000.06 315.003 999.31 316.213C998.577 317.423 997.497 318.028 996.07 318.028C994.657 318.028 993.577 317.423 992.83 316.213C992.084 315.003 991.71 313.255 991.71 310.968C991.71 308.695 992.084 306.953 992.83 305.743C993.577 304.533 994.657 303.928 996.07 303.928ZM993.13 310.968C993.13 312.59 993.277 313.86 993.57 314.777L998.01 305.942C997.543 305.317 996.897 305.005 996.07 305.005C995.15 305.005 994.43 305.497 993.91 306.481C993.39 307.451 993.13 308.947 993.13 310.968ZM996.07 316.931C997.003 316.931 997.73 316.446 998.25 315.475C998.77 314.492 999.03 312.989 999.03 310.968C999.03 309.253 998.863 307.923 998.53 306.979L994.09 315.894C994.57 316.586 995.23 316.931 996.07 316.931Z" fill="url(#paint68_linear_122_130)"/>
<path d="M997.27 339.565H1000.21V340.622H992.59V339.565H995.99V328.356L992.75 330.291L992.19 329.393L996.19 326.92H997.27V339.565Z" fill="url(#paint69_linear_122_130)"/>
<path d="M996.07 349.514C997.497 349.514 998.577 350.119 999.31 351.329C1000.06 352.525 1000.43 354.267 1000.43 356.554C1000.43 358.841 1000.06 360.589 999.31 361.799C998.577 363.009 997.497 363.614 996.07 363.614C994.657 363.614 993.577 363.009 992.83 361.799C992.084 360.589 991.71 358.841 991.71 356.554C991.71 354.28 992.084 352.538 992.83 351.329C993.577 350.119 994.657 349.514 996.07 349.514ZM993.13 356.554C993.13 358.176 993.277 359.446 993.57 360.363L998.01 351.528C997.543 350.903 996.897 350.591 996.07 350.591C995.15 350.591 994.43 351.083 993.91 352.066C993.39 353.037 993.13 354.533 993.13 356.554ZM996.07 362.517C997.003 362.517 997.73 362.032 998.25 361.061C998.77 360.077 999.03 358.575 999.03 356.554C999.03 354.839 998.863 353.509 998.53 352.565L994.09 361.48C994.57 362.171 995.23 362.517 996.07 362.517Z" fill="url(#paint70_linear_122_130)"/>
<path d="M997.27 385.15H1000.21V386.207H992.59V385.15H995.99V373.942L992.75 375.876L992.19 374.979L996.19 372.506H997.27V385.15Z" fill="url(#paint71_linear_122_130)"/>
<path d="M997.27 407.943H1000.21V409H992.59V407.943H995.99V396.735L992.75 398.669L992.19 397.772L996.19 395.299H997.27V407.943Z" fill="url(#paint72_linear_122_130)"/>
<path d="M940.36 144.378C941.786 144.378 942.866 144.983 943.599 146.193C944.346 147.39 944.719 149.132 944.719 151.419C944.719 153.705 944.346 155.454 943.599 156.664C942.866 157.874 941.786 158.479 940.36 158.479C938.946 158.479 937.867 157.874 937.12 156.664C936.373 155.454 936 153.705 936 151.419C936 149.145 936.373 147.403 937.12 146.193C937.867 144.983 938.946 144.378 940.36 144.378ZM937.42 151.419C937.42 153.041 937.567 154.31 937.86 155.228L942.3 146.393C941.833 145.768 941.186 145.455 940.36 145.455C939.44 145.455 938.72 145.947 938.2 146.931C937.68 147.902 937.42 149.398 937.42 151.419ZM940.36 157.382C941.293 157.382 942.02 156.896 942.54 155.926C943.06 154.942 943.319 153.44 943.319 151.419C943.319 149.703 943.153 148.374 942.82 147.43L938.38 156.345C938.86 157.036 939.52 157.382 940.36 157.382Z" fill="url(#paint73_linear_122_130)"/>
<path d="M940.36 167.171C941.786 167.171 942.866 167.776 943.599 168.986C944.346 170.183 944.719 171.924 944.719 174.211C944.719 176.498 944.346 178.247 943.599 179.457C942.866 180.666 941.786 181.271 940.36 181.271C938.946 181.271 937.867 180.666 937.12 179.457C936.373 178.247 936 176.498 936 174.211C936 171.938 936.373 170.196 937.12 168.986C937.867 167.776 938.946 167.171 940.36 167.171ZM937.42 174.211C937.42 175.833 937.567 177.103 937.86 178.021L942.3 169.186C941.833 168.561 941.186 168.248 940.36 168.248C939.44 168.248 938.72 168.74 938.2 169.724C937.68 170.695 937.42 172.19 937.42 174.211ZM940.36 180.174C941.293 180.174 942.02 179.689 942.54 178.719C943.06 177.735 943.319 176.232 943.319 174.211C943.319 172.496 943.153 171.167 942.82 170.223L938.38 179.137C938.86 179.829 939.52 180.174 940.36 180.174Z" fill="url(#paint74_linear_122_130)"/>
<path d="M941.56 202.808H944.499V203.865H936.88V202.808H940.28V191.599L937.04 193.534L936.48 192.636L940.48 190.163H941.56V202.808Z" fill="url(#paint75_linear_122_130)"/>
<path d="M940.36 212.757C941.786 212.757 942.866 213.362 943.599 214.572C944.346 215.768 944.719 217.51 944.719 219.797C944.719 222.084 944.346 223.832 943.599 225.042C942.866 226.252 941.786 226.857 940.36 226.857C938.946 226.857 937.867 226.252 937.12 225.042C936.373 223.832 936 222.084 936 219.797C936 217.523 936.373 215.782 937.12 214.572C937.867 213.362 938.946 212.757 940.36 212.757ZM937.42 219.797C937.42 221.419 937.567 222.689 937.86 223.606L942.3 214.771C941.833 214.146 941.186 213.834 940.36 213.834C939.44 213.834 938.72 214.326 938.2 215.31C937.68 216.28 937.42 217.776 937.42 219.797ZM940.36 225.76C941.293 225.76 942.02 225.275 942.54 224.304C943.06 223.32 943.319 221.818 943.319 219.797C943.319 218.082 943.153 216.752 942.82 215.808L938.38 224.723C938.86 225.414 939.52 225.76 940.36 225.76Z" fill="url(#paint76_linear_122_130)"/>
<path d="M941.56 248.393H944.499V249.45H936.88V248.393H940.28V237.185L937.04 239.12L936.48 238.222L940.48 235.749H941.56V248.393Z" fill="url(#paint77_linear_122_130)"/>
<path d="M941.56 271.186H944.499V272.243H936.88V271.186H940.28V259.978L937.04 261.912L936.48 261.015L940.48 258.542H941.56V271.186Z" fill="url(#paint78_linear_122_130)"/>
<path d="M978.7 111.637H981.64V112.694H974.02V111.637H977.42V100.428L974.18 102.363L973.62 101.465L977.62 98.9922H978.7V111.637Z" fill="url(#paint79_linear_122_130)"/>
<path d="M977.5 121.586C978.927 121.586 980.006 122.191 980.74 123.4C981.486 124.597 981.86 126.339 981.86 128.626C981.86 130.913 981.486 132.661 980.74 133.871C980.006 135.081 978.927 135.686 977.5 135.686C976.087 135.686 975.007 135.081 974.26 133.871C973.514 132.661 973.14 130.913 973.14 128.626C973.14 126.352 973.514 124.61 974.26 123.4C975.007 122.191 976.087 121.586 977.5 121.586ZM974.56 128.626C974.56 130.248 974.707 131.518 975 132.435L979.44 123.6C978.973 122.975 978.327 122.663 977.5 122.663C976.58 122.663 975.86 123.155 975.34 124.138C974.82 125.109 974.56 126.605 974.56 128.626ZM977.5 134.589C978.433 134.589 979.16 134.104 979.68 133.133C980.2 132.149 980.46 130.647 980.46 128.626C980.46 126.911 980.293 125.581 979.96 124.637L975.52 133.552C976 134.243 976.66 134.589 977.5 134.589Z" fill="url(#paint80_linear_122_130)"/>
<path d="M978.7 157.222H981.64V158.279H974.02V157.222H977.42V146.014L974.18 147.948L973.62 147.051L977.62 144.578H978.7V157.222Z" fill="url(#paint81_linear_122_130)"/>
<path d="M978.7 180.015H981.64V181.072H974.02V180.015H977.42V168.807L974.18 170.741L973.62 169.844L977.62 167.371H978.7V180.015Z" fill="url(#paint82_linear_122_130)"/>
<path d="M977.5 189.964C978.927 189.964 980.006 190.569 980.74 191.779C981.486 192.976 981.86 194.717 981.86 197.004C981.86 199.291 981.486 201.039 980.74 202.249C980.006 203.459 978.927 204.064 977.5 204.064C976.087 204.064 975.007 203.459 974.26 202.249C973.514 201.039 973.14 199.291 973.14 197.004C973.14 194.731 973.514 192.989 974.26 191.779C975.007 190.569 976.087 189.964 977.5 189.964ZM974.56 197.004C974.56 198.626 974.707 199.896 975 200.813L979.44 191.978C978.973 191.353 978.327 191.041 977.5 191.041C976.58 191.041 975.86 191.533 975.34 192.517C974.82 193.487 974.56 194.983 974.56 197.004ZM977.5 202.967C978.433 202.967 979.16 202.482 979.68 201.511C980.2 200.528 980.46 199.025 980.46 197.004C980.46 195.289 980.293 193.959 979.96 193.015L975.52 201.93C976 202.622 976.66 202.967 977.5 202.967Z" fill="url(#paint83_linear_122_130)"/>
<path d="M978.7 225.601H981.64V226.658H974.02V225.601H977.42V214.392L974.18 216.327L973.62 215.429L977.62 212.956H978.7V225.601Z" fill="url(#paint84_linear_122_130)"/>
<path d="M978.7 248.393H981.64V249.45H974.02V248.393H977.42V237.185L974.18 239.12L973.62 238.222L977.62 235.749H978.7V248.393Z" fill="url(#paint85_linear_122_130)"/>
<path d="M977.5 258.342C978.927 258.342 980.006 258.947 980.74 260.157C981.486 261.354 981.86 263.096 981.86 265.383C981.86 267.669 981.486 269.418 980.74 270.628C980.006 271.838 978.927 272.443 977.5 272.443C976.087 272.443 975.007 271.838 974.26 270.628C973.514 269.418 973.14 267.669 973.14 265.383C973.14 263.109 973.514 261.367 974.26 260.157C975.007 258.947 976.087 258.342 977.5 258.342ZM974.56 265.383C974.56 267.005 974.707 268.274 975 269.192L979.44 260.357C978.973 259.732 978.327 259.419 977.5 259.419C976.58 259.419 975.86 259.911 975.34 260.895C974.82 261.866 974.56 263.362 974.56 265.383ZM977.5 271.346C978.433 271.346 979.16 270.86 979.68 269.89C980.2 268.906 980.46 267.404 980.46 265.383C980.46 263.667 980.293 262.338 979.96 261.394L975.52 270.309C976 271 976.66 271.346 977.5 271.346Z" fill="url(#paint86_linear_122_130)"/>
<path d="M978.7 293.979H981.64V295.036H974.02V293.979H977.42V282.771L974.18 284.705L973.62 283.808L977.62 281.335H978.7V293.979Z" fill="url(#paint87_linear_122_130)"/>
<path d="M977.5 303.928C978.927 303.928 980.006 304.533 980.74 305.743C981.486 306.94 981.86 308.681 981.86 310.968C981.86 313.255 981.486 315.003 980.74 316.213C980.006 317.423 978.927 318.028 977.5 318.028C976.087 318.028 975.007 317.423 974.26 316.213C973.514 315.003 973.14 313.255 973.14 310.968C973.14 308.695 973.514 306.953 974.26 305.743C975.007 304.533 976.087 303.928 977.5 303.928ZM974.56 310.968C974.56 312.59 974.707 313.86 975 314.777L979.44 305.942C978.973 305.317 978.327 305.005 977.5 305.005C976.58 305.005 975.86 305.497 975.34 306.481C974.82 307.451 974.56 308.947 974.56 310.968ZM977.5 316.931C978.433 316.931 979.16 316.446 979.68 315.475C980.2 314.492 980.46 312.989 980.46 310.968C980.46 309.253 980.293 307.923 979.96 306.979L975.52 315.894C976 316.586 976.66 316.931 977.5 316.931Z" fill="url(#paint88_linear_122_130)"/>
<path d="M1014.64 98.7928C1016.07 98.7928 1017.15 99.3978 1017.88 100.608C1018.63 101.804 1019 103.546 1019 105.833C1019 108.12 1018.63 109.868 1017.88 111.078C1017.15 112.288 1016.07 112.893 1014.64 112.893C1013.23 112.893 1012.15 112.288 1011.4 111.078C1010.65 109.868 1010.28 108.12 1010.28 105.833C1010.28 103.559 1010.65 101.818 1011.4 100.608C1012.15 99.3978 1013.23 98.7928 1014.64 98.7928ZM1011.7 105.833C1011.7 107.455 1011.85 108.725 1012.14 109.642L1016.58 100.807C1016.11 100.182 1015.47 99.8698 1014.64 99.8698C1013.72 99.8698 1013 100.362 1012.48 101.346C1011.96 102.316 1011.7 103.812 1011.7 105.833ZM1014.64 111.796C1015.57 111.796 1016.3 111.311 1016.82 110.34C1017.34 109.356 1017.6 107.854 1017.6 105.833C1017.6 104.118 1017.43 102.788 1017.1 101.844L1012.66 110.759C1013.14 111.45 1013.8 111.796 1014.64 111.796Z" fill="url(#paint89_linear_122_130)"/>
<path d="M1015.84 134.429H1018.78V135.486H1011.16V134.429H1014.56V123.221L1011.32 125.156L1010.76 124.258L1014.76 121.785H1015.84V134.429Z" fill="url(#paint90_linear_122_130)"/>
<path d="M1015.84 157.222H1018.78V158.279H1011.16V157.222H1014.56V146.014L1011.32 147.948L1010.76 147.051L1014.76 144.578H1015.84V157.222Z" fill="url(#paint91_linear_122_130)"/>
<path d="M1014.64 167.171C1016.07 167.171 1017.15 167.776 1017.88 168.986C1018.63 170.183 1019 171.924 1019 174.211C1019 176.498 1018.63 178.247 1017.88 179.457C1017.15 180.666 1016.07 181.271 1014.64 181.271C1013.23 181.271 1012.15 180.666 1011.4 179.457C1010.65 178.247 1010.28 176.498 1010.28 174.211C1010.28 171.938 1010.65 170.196 1011.4 168.986C1012.15 167.776 1013.23 167.171 1014.64 167.171ZM1011.7 174.211C1011.7 175.833 1011.85 177.103 1012.14 178.021L1016.58 169.186C1016.11 168.561 1015.47 168.248 1014.64 168.248C1013.72 168.248 1013 168.74 1012.48 169.724C1011.96 170.695 1011.7 172.19 1011.7 174.211ZM1014.64 180.174C1015.57 180.174 1016.3 179.689 1016.82 178.719C1017.34 177.735 1017.6 176.232 1017.6 174.211C1017.6 172.496 1017.43 171.167 1017.1 170.223L1012.66 179.137C1013.14 179.829 1013.8 180.174 1014.64 180.174Z" fill="url(#paint92_linear_122_130)"/>
<path d="M1014.64 189.964C1016.07 189.964 1017.15 190.569 1017.88 191.779C1018.63 192.976 1019 194.717 1019 197.004C1019 199.291 1018.63 201.039 1017.88 202.249C1017.15 203.459 1016.07 204.064 1014.64 204.064C1013.23 204.064 1012.15 203.459 1011.4 202.249C1010.65 201.039 1010.28 199.291 1010.28 197.004C1010.28 194.731 1010.65 192.989 1011.4 191.779C1012.15 190.569 1013.23 189.964 1014.64 189.964ZM1011.7 197.004C1011.7 198.626 1011.85 199.896 1012.14 200.813L1016.58 191.978C1016.11 191.353 1015.47 191.041 1014.64 191.041C1013.72 191.041 1013 191.533 1012.48 192.517C1011.96 193.487 1011.7 194.983 1011.7 197.004ZM1014.64 202.967C1015.57 202.967 1016.3 202.482 1016.82 201.511C1017.34 200.528 1017.6 199.025 1017.6 197.004C1017.6 195.289 1017.43 193.959 1017.1 193.015L1012.66 201.93C1013.14 202.622 1013.8 202.967 1014.64 202.967Z" fill="url(#paint93_linear_122_130)"/>
</g>
</g>
<defs>
<filter id="filter0_f_122_130" x="-519.19" y="-610.19" width="2141.38" height="1500.38" filterUnits="userSpaceOnUse" color-interpolation-filters="sRGB">
<feFlood flood-opacity="0" result="BackgroundImageFix"/>
<feBlend mode="normal" in="SourceGraphic" in2="BackgroundImageFix" result="shape"/>
<feGaussianBlur stdDeviation="200.095" result="effect1_foregroundBlur_122_130"/>
</filter>
<linearGradient id="paint0_linear_122_130" x1="91.5" y1="376" x2="91.5" y2="687.381" gradientUnits="userSpaceOnUse">
<stop stop-color="#F7DD43"/>
<stop offset="1" stop-color="#F7DD43" stop-opacity="0"/>
</linearGradient>
<linearGradient id="paint1_linear_122_130" x1="91.5" y1="376" x2="91.5" y2="687.381" gradientUnits="userSpaceOnUse">
<stop stop-color="#F7DD43"/>
<stop offset="1" stop-color="#F7DD43" stop-opacity="0"/>
</linearGradient>
<linearGradient id="paint2_linear_122_130" x1="91.5" y1="376" x2="91.5" y2="687.381" gradientUnits="userSpaceOnUse">
<stop stop-color="#F7DD43"/>
<stop offset="1" stop-color="#F7DD43" stop-opacity="0"/>
</linearGradient>
<linearGradient id="paint3_linear_122_130" x1="91.5" y1="376" x2="91.5" y2="687.381" gradientUnits="userSpaceOnUse">
<stop stop-color="#F7DD43"/>
<stop offset="1" stop-color="#F7DD43" stop-opacity="0"/>
</linearGradient>
<linearGradient id="paint4_linear_122_130" x1="91.5" y1="376" x2="91.5" y2="687.381" gradientUnits="userSpaceOnUse">
<stop stop-color="#F7DD43"/>
<stop offset="1" stop-color="#F7DD43" stop-opacity="0"/>
</linearGradient>
<linearGradient id="paint5_linear_122_130" x1="91.5" y1="376" x2="91.5" y2="687.381" gradientUnits="userSpaceOnUse">
<stop stop-color="#F7DD43"/>
<stop offset="1" stop-color="#F7DD43" stop-opacity="0"/>
</linearGradient>
<linearGradient id="paint6_linear_122_130" x1="91.5" y1="376" x2="91.5" y2="687.381" gradientUnits="userSpaceOnUse">
<stop stop-color="#F7DD43"/>
<stop offset="1" stop-color="#F7DD43" stop-opacity="0"/>
</linearGradient>
<linearGradient id="paint7_linear_122_130" x1="91.5" y1="376" x2="91.5" y2="687.381" gradientUnits="userSpaceOnUse">
<stop stop-color="#F7DD43"/>
<stop offset="1" stop-color="#F7DD43" stop-opacity="0"/>
</linearGradient>
<linearGradient id="paint8_linear_122_130" x1="91.5" y1="376" x2="91.5" y2="687.381" gradientUnits="userSpaceOnUse">
<stop stop-color="#F7DD43"/>
<stop offset="1" stop-color="#F7DD43" stop-opacity="0"/>
</linearGradient>
<linearGradient id="paint9_linear_122_130" x1="91.5" y1="376" x2="91.5" y2="687.381" gradientUnits="userSpaceOnUse">
<stop stop-color="#F7DD43"/>
<stop offset="1" stop-color="#F7DD43" stop-opacity="0"/>
</linearGradient>
<linearGradient id="paint10_linear_122_130" x1="91.5" y1="376" x2="91.5" y2="687.381" gradientUnits="userSpaceOnUse">
<stop stop-color="#F7DD43"/>
<stop offset="1" stop-color="#F7DD43" stop-opacity="0"/>
</linearGradient>
<linearGradient id="paint11_linear_122_130" x1="91.5" y1="376" x2="91.5" y2="687.381" gradientUnits="userSpaceOnUse">
<stop stop-color="#F7DD43"/>
<stop offset="1" stop-color="#F7DD43" stop-opacity="0"/>
</linearGradient>
<linearGradient id="paint12_linear_122_130" x1="91.5" y1="376" x2="91.5" y2="687.381" gradientUnits="userSpaceOnUse">
<stop stop-color="#F7DD43"/>
<stop offset="1" stop-color="#F7DD43" stop-opacity="0"/>
</linearGradient>
<linearGradient id="paint13_linear_122_130" x1="91.5" y1="376" x2="91.5" y2="687.381" gradientUnits="userSpaceOnUse">
<stop stop-color="#F7DD43"/>
<stop offset="1" stop-color="#F7DD43" stop-opacity="0"/>
</linearGradient>
<linearGradient id="paint14_linear_122_130" x1="91.5" y1="376" x2="91.5" y2="687.381" gradientUnits="userSpaceOnUse">
<stop stop-color="#F7DD43"/>
<stop offset="1" stop-color="#F7DD43" stop-opacity="0"/>
</linearGradient>
<linearGradient id="paint15_linear_122_130" x1="91.5" y1="376" x2="91.5" y2="687.381" gradientUnits="userSpaceOnUse">
<stop stop-color="#F7DD43"/>
<stop offset="1" stop-color="#F7DD43" stop-opacity="0"/>
</linearGradient>
<linearGradient id="paint16_linear_122_130" x1="91.5" y1="376" x2="91.5" y2="687.381" gradientUnits="userSpaceOnUse">
<stop stop-color="#F7DD43"/>
<stop offset="1" stop-color="#F7DD43" stop-opacity="0"/>
</linearGradient>
<linearGradient id="paint17_linear_122_130" x1="91.5" y1="376" x2="91.5" y2="687.381" gradientUnits="userSpaceOnUse">
<stop stop-color="#F7DD43"/>
<stop offset="1" stop-color="#F7DD43" stop-opacity="0"/>
</linearGradient>
<linearGradient id="paint18_linear_122_130" x1="91.5" y1="376" x2="91.5" y2="687.381" gradientUnits="userSpaceOnUse">
<stop stop-color="#F7DD43"/>
<stop offset="1" stop-color="#F7DD43" stop-opacity="0"/>
</linearGradient>
<linearGradient id="paint19_linear_122_130" x1="91.5" y1="376" x2="91.5" y2="687.381" gradientUnits="userSpaceOnUse">
<stop stop-color="#F7DD43"/>
<stop offset="1" stop-color="#F7DD43" stop-opacity="0"/>
</linearGradient>
<linearGradient id="paint20_linear_122_130" x1="91.5" y1="376" x2="91.5" y2="687.381" gradientUnits="userSpaceOnUse">
<stop stop-color="#F7DD43"/>
<stop offset="1" stop-color="#F7DD43" stop-opacity="0"/>
</linearGradient>
<linearGradient id="paint21_linear_122_130" x1="91.5" y1="376" x2="91.5" y2="687.381" gradientUnits="userSpaceOnUse">
<stop stop-color="#F7DD43"/>
<stop offset="1" stop-color="#F7DD43" stop-opacity="0"/>
</linearGradient>
<linearGradient id="paint22_linear_122_130" x1="91.5" y1="376" x2="91.5" y2="687.381" gradientUnits="userSpaceOnUse">
<stop stop-color="#F7DD43"/>
<stop offset="1" stop-color="#F7DD43" stop-opacity="0"/>
</linearGradient>
<linearGradient id="paint23_linear_122_130" x1="91.5" y1="376" x2="91.5" y2="687.381" gradientUnits="userSpaceOnUse">
<stop stop-color="#F7DD43"/>
<stop offset="1" stop-color="#F7DD43" stop-opacity="0"/>
</linearGradient>
<linearGradient id="paint24_linear_122_130" x1="91.5" y1="376" x2="91.5" y2="687.381" gradientUnits="userSpaceOnUse">
<stop stop-color="#F7DD43"/>
<stop offset="1" stop-color="#F7DD43" stop-opacity="0"/>
</linearGradient>
<linearGradient id="paint25_linear_122_130" x1="91.5" y1="376" x2="91.5" y2="687.381" gradientUnits="userSpaceOnUse">
<stop stop-color="#F7DD43"/>
<stop offset="1" stop-color="#F7DD43" stop-opacity="0"/>
</linearGradient>
<linearGradient id="paint26_linear_122_130" x1="91.5" y1="376" x2="91.5" y2="687.381" gradientUnits="userSpaceOnUse">
<stop stop-color="#F7DD43"/>
<stop offset="1" stop-color="#F7DD43" stop-opacity="0"/>
</linearGradient>
<linearGradient id="paint27_linear_122_130" x1="91.5" y1="376" x2="91.5" y2="687.381" gradientUnits="userSpaceOnUse">
<stop stop-color="#F7DD43"/>
<stop offset="1" stop-color="#F7DD43" stop-opacity="0"/>
</linearGradient>
<linearGradient id="paint28_linear_122_130" x1="91.5" y1="376" x2="91.5" y2="687.381" gradientUnits="userSpaceOnUse">
<stop stop-color="#F7DD43"/>
<stop offset="1" stop-color="#F7DD43" stop-opacity="0"/>
</linearGradient>
<linearGradient id="paint29_linear_122_130" x1="91.5" y1="376" x2="91.5" y2="687.381" gradientUnits="userSpaceOnUse">
<stop stop-color="#F7DD43"/>
<stop offset="1" stop-color="#F7DD43" stop-opacity="0"/>
</linearGradient>
<linearGradient id="paint30_linear_122_130" x1="91.5" y1="376" x2="91.5" y2="687.381" gradientUnits="userSpaceOnUse">
<stop stop-color="#F7DD43"/>
<stop offset="1" stop-color="#F7DD43" stop-opacity="0"/>
</linearGradient>
<linearGradient id="paint31_linear_122_130" x1="91.5" y1="376" x2="91.5" y2="687.381" gradientUnits="userSpaceOnUse">
<stop stop-color="#F7DD43"/>
<stop offset="1" stop-color="#F7DD43" stop-opacity="0"/>
</linearGradient>
<linearGradient id="paint32_linear_122_130" x1="91.5" y1="376" x2="91.5" y2="687.381" gradientUnits="userSpaceOnUse">
<stop stop-color="#F7DD43"/>
<stop offset="1" stop-color="#F7DD43" stop-opacity="0"/>
</linearGradient>
<linearGradient id="paint33_linear_122_130" x1="91.5" y1="376" x2="91.5" y2="687.381" gradientUnits="userSpaceOnUse">
<stop stop-color="#F7DD43"/>
<stop offset="1" stop-color="#F7DD43" stop-opacity="0"/>
</linearGradient>
<linearGradient id="paint34_linear_122_130" x1="91.5" y1="376" x2="91.5" y2="687.381" gradientUnits="userSpaceOnUse">
<stop stop-color="#F7DD43"/>
<stop offset="1" stop-color="#F7DD43" stop-opacity="0"/>
</linearGradient>
<linearGradient id="paint35_linear_122_130" x1="91.5" y1="376" x2="91.5" y2="687.381" gradientUnits="userSpaceOnUse">
<stop stop-color="#F7DD43"/>
<stop offset="1" stop-color="#F7DD43" stop-opacity="0"/>
</linearGradient>
<linearGradient id="paint36_linear_122_130" x1="91.5" y1="376" x2="91.5" y2="687.381" gradientUnits="userSpaceOnUse">
<stop stop-color="#F7DD43"/>
<stop offset="1" stop-color="#F7DD43" stop-opacity="0"/>
</linearGradient>
<linearGradient id="paint37_linear_122_130" x1="91.5" y1="376" x2="91.5" y2="687.381" gradientUnits="userSpaceOnUse">
<stop stop-color="#F7DD43"/>
<stop offset="1" stop-color="#F7DD43" stop-opacity="0"/>
</linearGradient>
<linearGradient id="paint38_linear_122_130" x1="91.5" y1="376" x2="91.5" y2="687.381" gradientUnits="userSpaceOnUse">
<stop stop-color="#F7DD43"/>
<stop offset="1" stop-color="#F7DD43" stop-opacity="0"/>
</linearGradient>
<linearGradient id="paint39_linear_122_130" x1="91.5" y1="376" x2="91.5" y2="687.381" gradientUnits="userSpaceOnUse">
<stop stop-color="#F7DD43"/>
<stop offset="1" stop-color="#F7DD43" stop-opacity="0"/>
</linearGradient>
<linearGradient id="paint40_linear_122_130" x1="91.5" y1="376" x2="91.5" y2="687.381" gradientUnits="userSpaceOnUse">
<stop stop-color="#F7DD43"/>
<stop offset="1" stop-color="#F7DD43" stop-opacity="0"/>
</linearGradient>
<linearGradient id="paint41_linear_122_130" x1="91.5" y1="376" x2="91.5" y2="687.381" gradientUnits="userSpaceOnUse">
<stop stop-color="#F7DD43"/>
<stop offset="1" stop-color="#F7DD43" stop-opacity="0"/>
</linearGradient>
<linearGradient id="paint42_linear_122_130" x1="91.5" y1="376" x2="91.5" y2="687.381" gradientUnits="userSpaceOnUse">
<stop stop-color="#F7DD43"/>
<stop offset="1" stop-color="#F7DD43" stop-opacity="0"/>
</linearGradient>
<linearGradient id="paint43_linear_122_130" x1="91.5" y1="376" x2="91.5" y2="687.381" gradientUnits="userSpaceOnUse">
<stop stop-color="#F7DD43"/>
<stop offset="1" stop-color="#F7DD43" stop-opacity="0"/>
</linearGradient>
<linearGradient id="paint44_linear_122_130" x1="91.5" y1="376" x2="91.5" y2="687.381" gradientUnits="userSpaceOnUse">
<stop stop-color="#F7DD43"/>
<stop offset="1" stop-color="#F7DD43" stop-opacity="0"/>
</linearGradient>
<linearGradient id="paint45_linear_122_130" x1="91.5" y1="376" x2="91.5" y2="687.381" gradientUnits="userSpaceOnUse">
<stop stop-color="#F7DD43"/>
<stop offset="1" stop-color="#F7DD43" stop-opacity="0"/>
</linearGradient>
<linearGradient id="paint46_linear_122_130" x1="91.5" y1="376" x2="91.5" y2="687.381" gradientUnits="userSpaceOnUse">
<stop stop-color="#F7DD43"/>
<stop offset="1" stop-color="#F7DD43" stop-opacity="0"/>
</linearGradient>
<linearGradient id="paint47_linear_122_130" x1="977.5" y1="76" x2="977.5" y2="374.818" gradientUnits="userSpaceOnUse">
<stop stop-color="#F7DD43"/>
<stop offset="1" stop-color="#F7DD43" stop-opacity="0"/>
</linearGradient>
<linearGradient id="paint48_linear_122_130" x1="977.5" y1="76" x2="977.5" y2="374.818" gradientUnits="userSpaceOnUse">
<stop stop-color="#F7DD43"/>
<stop offset="1" stop-color="#F7DD43" stop-opacity="0"/>
</linearGradient>
<linearGradient id="paint49_linear_122_130" x1="977.5" y1="76" x2="977.5" y2="374.818" gradientUnits="userSpaceOnUse">
<stop stop-color="#F7DD43"/>
<stop offset="1" stop-color="#F7DD43" stop-opacity="0"/>
</linearGradient>
<linearGradient id="paint50_linear_122_130" x1="977.5" y1="76" x2="977.5" y2="374.818" gradientUnits="userSpaceOnUse">
<stop stop-color="#F7DD43"/>
<stop offset="1" stop-color="#F7DD43" stop-opacity="0"/>
</linearGradient>
<linearGradient id="paint51_linear_122_130" x1="977.5" y1="76" x2="977.5" y2="374.818" gradientUnits="userSpaceOnUse">
<stop stop-color="#F7DD43"/>
<stop offset="1" stop-color="#F7DD43" stop-opacity="0"/>
</linearGradient>
<linearGradient id="paint52_linear_122_130" x1="977.5" y1="76" x2="977.5" y2="374.818" gradientUnits="userSpaceOnUse">
<stop stop-color="#F7DD43"/>
<stop offset="1" stop-color="#F7DD43" stop-opacity="0"/>
</linearGradient>
<linearGradient id="paint53_linear_122_130" x1="977.5" y1="76" x2="977.5" y2="374.818" gradientUnits="userSpaceOnUse">
<stop stop-color="#F7DD43"/>
<stop offset="1" stop-color="#F7DD43" stop-opacity="0"/>
</linearGradient>
<linearGradient id="paint54_linear_122_130" x1="977.5" y1="76" x2="977.5" y2="374.818" gradientUnits="userSpaceOnUse">
<stop stop-color="#F7DD43"/>
<stop offset="1" stop-color="#F7DD43" stop-opacity="0"/>
</linearGradient>
<linearGradient id="paint55_linear_122_130" x1="977.5" y1="76" x2="977.5" y2="374.818" gradientUnits="userSpaceOnUse">
<stop stop-color="#F7DD43"/>
<stop offset="1" stop-color="#F7DD43" stop-opacity="0"/>
</linearGradient>
<linearGradient id="paint56_linear_122_130" x1="977.5" y1="76" x2="977.5" y2="374.818" gradientUnits="userSpaceOnUse">
<stop stop-color="#F7DD43"/>
<stop offset="1" stop-color="#F7DD43" stop-opacity="0"/>
</linearGradient>
<linearGradient id="paint57_linear_122_130" x1="977.5" y1="76" x2="977.5" y2="374.818" gradientUnits="userSpaceOnUse">
<stop stop-color="#F7DD43"/>
<stop offset="1" stop-color="#F7DD43" stop-opacity="0"/>
</linearGradient>
<linearGradient id="paint58_linear_122_130" x1="977.5" y1="76" x2="977.5" y2="374.818" gradientUnits="userSpaceOnUse">
<stop stop-color="#F7DD43"/>
<stop offset="1" stop-color="#F7DD43" stop-opacity="0"/>
</linearGradient>
<linearGradient id="paint59_linear_122_130" x1="977.5" y1="76" x2="977.5" y2="374.818" gradientUnits="userSpaceOnUse">
<stop stop-color="#F7DD43"/>
<stop offset="1" stop-color="#F7DD43" stop-opacity="0"/>
</linearGradient>
<linearGradient id="paint60_linear_122_130" x1="977.5" y1="76" x2="977.5" y2="374.818" gradientUnits="userSpaceOnUse">
<stop stop-color="#F7DD43"/>
<stop offset="1" stop-color="#F7DD43" stop-opacity="0"/>
</linearGradient>
<linearGradient id="paint61_linear_122_130" x1="977.5" y1="76" x2="977.5" y2="374.818" gradientUnits="userSpaceOnUse">
<stop stop-color="#F7DD43"/>
<stop offset="1" stop-color="#F7DD43" stop-opacity="0"/>
</linearGradient>
<linearGradient id="paint62_linear_122_130" x1="977.5" y1="76" x2="977.5" y2="374.818" gradientUnits="userSpaceOnUse">
<stop stop-color="#F7DD43"/>
<stop offset="1" stop-color="#F7DD43" stop-opacity="0"/>
</linearGradient>
<linearGradient id="paint63_linear_122_130" x1="977.5" y1="76" x2="977.5" y2="374.818" gradientUnits="userSpaceOnUse">
<stop stop-color="#F7DD43"/>
<stop offset="1" stop-color="#F7DD43" stop-opacity="0"/>
</linearGradient>
<linearGradient id="paint64_linear_122_130" x1="977.5" y1="76" x2="977.5" y2="374.818" gradientUnits="userSpaceOnUse">
<stop stop-color="#F7DD43"/>
<stop offset="1" stop-color="#F7DD43" stop-opacity="0"/>
</linearGradient>
<linearGradient id="paint65_linear_122_130" x1="977.5" y1="76" x2="977.5" y2="374.818" gradientUnits="userSpaceOnUse">
<stop stop-color="#F7DD43"/>
<stop offset="1" stop-color="#F7DD43" stop-opacity="0"/>
</linearGradient>
<linearGradient id="paint66_linear_122_130" x1="977.5" y1="76" x2="977.5" y2="374.818" gradientUnits="userSpaceOnUse">
<stop stop-color="#F7DD43"/>
<stop offset="1" stop-color="#F7DD43" stop-opacity="0"/>
</linearGradient>
<linearGradient id="paint67_linear_122_130" x1="977.5" y1="76" x2="977.5" y2="374.818" gradientUnits="userSpaceOnUse">
<stop stop-color="#F7DD43"/>
<stop offset="1" stop-color="#F7DD43" stop-opacity="0"/>
</linearGradient>
<linearGradient id="paint68_linear_122_130" x1="977.5" y1="76" x2="977.5" y2="374.818" gradientUnits="userSpaceOnUse">
<stop stop-color="#F7DD43"/>
<stop offset="1" stop-color="#F7DD43" stop-opacity="0"/>
</linearGradient>
<linearGradient id="paint69_linear_122_130" x1="977.5" y1="76" x2="977.5" y2="374.818" gradientUnits="userSpaceOnUse">
<stop stop-color="#F7DD43"/>
<stop offset="1" stop-color="#F7DD43" stop-opacity="0"/>
</linearGradient>
<linearGradient id="paint70_linear_122_130" x1="977.5" y1="76" x2="977.5" y2="374.818" gradientUnits="userSpaceOnUse">
<stop stop-color="#F7DD43"/>
<stop offset="1" stop-color="#F7DD43" stop-opacity="0"/>
</linearGradient>
<linearGradient id="paint71_linear_122_130" x1="977.5" y1="76" x2="977.5" y2="374.818" gradientUnits="userSpaceOnUse">
<stop stop-color="#F7DD43"/>
<stop offset="1" stop-color="#F7DD43" stop-opacity="0"/>
</linearGradient>
<linearGradient id="paint72_linear_122_130" x1="977.5" y1="76" x2="977.5" y2="374.818" gradientUnits="userSpaceOnUse">
<stop stop-color="#F7DD43"/>
<stop offset="1" stop-color="#F7DD43" stop-opacity="0"/>
</linearGradient>
<linearGradient id="paint73_linear_122_130" x1="977.5" y1="76" x2="977.5" y2="374.818" gradientUnits="userSpaceOnUse">
<stop stop-color="#F7DD43"/>
<stop offset="1" stop-color="#F7DD43" stop-opacity="0"/>
</linearGradient>
<linearGradient id="paint74_linear_122_130" x1="977.5" y1="76" x2="977.5" y2="374.818" gradientUnits="userSpaceOnUse">
<stop stop-color="#F7DD43"/>
<stop offset="1" stop-color="#F7DD43" stop-opacity="0"/>
</linearGradient>
<linearGradient id="paint75_linear_122_130" x1="977.5" y1="76" x2="977.5" y2="374.818" gradientUnits="userSpaceOnUse">
<stop stop-color="#F7DD43"/>
<stop offset="1" stop-color="#F7DD43" stop-opacity="0"/>
</linearGradient>
<linearGradient id="paint76_linear_122_130" x1="977.5" y1="76" x2="977.5" y2="374.818" gradientUnits="userSpaceOnUse">
<stop stop-color="#F7DD43"/>
<stop offset="1" stop-color="#F7DD43" stop-opacity="0"/>
</linearGradient>
<linearGradient id="paint77_linear_122_130" x1="977.5" y1="76" x2="977.5" y2="374.818" gradientUnits="userSpaceOnUse">
<stop stop-color="#F7DD43"/>
<stop offset="1" stop-color="#F7DD43" stop-opacity="0"/>
</linearGradient>
<linearGradient id="paint78_linear_122_130" x1="977.5" y1="76" x2="977.5" y2="374.818" gradientUnits="userSpaceOnUse">
<stop stop-color="#F7DD43"/>
<stop offset="1" stop-color="#F7DD43" stop-opacity="0"/>
</linearGradient>
<linearGradient id="paint79_linear_122_130" x1="977.5" y1="76" x2="977.5" y2="374.818" gradientUnits="userSpaceOnUse">
<stop stop-color="#F7DD43"/>
<stop offset="1" stop-color="#F7DD43" stop-opacity="0"/>
</linearGradient>
<linearGradient id="paint80_linear_122_130" x1="977.5" y1="76" x2="977.5" y2="374.818" gradientUnits="userSpaceOnUse">
<stop stop-color="#F7DD43"/>
<stop offset="1" stop-color="#F7DD43" stop-opacity="0"/>
</linearGradient>
<linearGradient id="paint81_linear_122_130" x1="977.5" y1="76" x2="977.5" y2="374.818" gradientUnits="userSpaceOnUse">
<stop stop-color="#F7DD43"/>
<stop offset="1" stop-color="#F7DD43" stop-opacity="0"/>
</linearGradient>
<linearGradient id="paint82_linear_122_130" x1="977.5" y1="76" x2="977.5" y2="374.818" gradientUnits="userSpaceOnUse">
<stop stop-color="#F7DD43"/>
<stop offset="1" stop-color="#F7DD43" stop-opacity="0"/>
</linearGradient>
<linearGradient id="paint83_linear_122_130" x1="977.5" y1="76" x2="977.5" y2="374.818" gradientUnits="userSpaceOnUse">
<stop stop-color="#F7DD43"/>
<stop offset="1" stop-color="#F7DD43" stop-opacity="0"/>
</linearGradient>
<linearGradient id="paint84_linear_122_130" x1="977.5" y1="76" x2="977.5" y2="374.818" gradientUnits="userSpaceOnUse">
<stop stop-color="#F7DD43"/>
<stop offset="1" stop-color="#F7DD43" stop-opacity="0"/>
</linearGradient>
<linearGradient id="paint85_linear_122_130" x1="977.5" y1="76" x2="977.5" y2="374.818" gradientUnits="userSpaceOnUse">
<stop stop-color="#F7DD43"/>
<stop offset="1" stop-color="#F7DD43" stop-opacity="0"/>
</linearGradient>
<linearGradient id="paint86_linear_122_130" x1="977.5" y1="76" x2="977.5" y2="374.818" gradientUnits="userSpaceOnUse">
<stop stop-color="#F7DD43"/>
<stop offset="1" stop-color="#F7DD43" stop-opacity="0"/>
</linearGradient>
<linearGradient id="paint87_linear_122_130" x1="977.5" y1="76" x2="977.5" y2="374.818" gradientUnits="userSpaceOnUse">
<stop stop-color="#F7DD43"/>
<stop offset="1" stop-color="#F7DD43" stop-opacity="0"/>
</linearGradient>
<linearGradient id="paint88_linear_122_130" x1="977.5" y1="76" x2="977.5" y2="374.818" gradientUnits="userSpaceOnUse">
<stop stop-color="#F7DD43"/>
<stop offset="1" stop-color="#F7DD43" stop-opacity="0"/>
</linearGradient>
<linearGradient id="paint89_linear_122_130" x1="977.5" y1="76" x2="977.5" y2="374.818" gradientUnits="userSpaceOnUse">
<stop stop-color="#F7DD43"/>
<stop offset="1" stop-color="#F7DD43" stop-opacity="0"/>
</linearGradient>
<linearGradient id="paint90_linear_122_130" x1="977.5" y1="76" x2="977.5" y2="374.818" gradientUnits="userSpaceOnUse">
<stop stop-color="#F7DD43"/>
<stop offset="1" stop-color="#F7DD43" stop-opacity="0"/>
</linearGradient>
<linearGradient id="paint91_linear_122_130" x1="977.5" y1="76" x2="977.5" y2="374.818" gradientUnits="userSpaceOnUse">
<stop stop-color="#F7DD43"/>
<stop offset="1" stop-color="#F7DD43" stop-opacity="0"/>
</linearGradient>
<linearGradient id="paint92_linear_122_130" x1="977.5" y1="76" x2="977.5" y2="374.818" gradientUnits="userSpaceOnUse">
<stop stop-color="#F7DD43"/>
<stop offset="1" stop-color="#F7DD43" stop-opacity="0"/>
</linearGradient>
<linearGradient id="paint93_linear_122_130" x1="977.5" y1="76" x2="977.5" y2="374.818" gradientUnits="userSpaceOnUse">
<stop stop-color="#F7DD43"/>
<stop offset="1" stop-color="#F7DD43" stop-opacity="0"/>
</linearGradient>
<clipPath id="clip0_122_130">
<rect width="1024" height="753" fill="white"/>
</clipPath>
</defs>
</svg>
